<svg width="379" height="812" viewBox="0 0 379 812" fill="none" xmlns="http://www.w3.org/2000/svg">
    <path fill-rule="evenodd" clip-rule="evenodd"
        d="M389.184 808.591C327.258 798.606 287.275 743.453 232.386 713.079C166.046 676.368 75.167 676.513 34.6495 612.403C-8.37225 544.331 -9.05804 452.225 20.0762 377.145C48.5239 303.834 132.259 275.247 187.275 219.082C258.453 146.415 287.834 -7.99695 389.184 0.323242C493.906 8.92035 488.049 182.593 568.375 250.368C638.576 309.6 773.49 276.615 814.233 358.958C854.133 439.594 791.655 535.076 748.239 613.873C711.251 681.004 654.922 733.82 587.566 770.347C526.874 803.261 457.337 819.58 389.184 808.591Z"
        fill="#E6AF2E" />
</svg>