<svg width="1438" height="169" viewBox="0 0 1438 169" fill="none" xmlns="http://www.w3.org/2000/svg">
    <path fill-rule="evenodd" clip-rule="evenodd"
        d="M0 41.9936L59.9167 29.6952C119.833 17.3968 239.667 -7.19994 359.5 2.02384C479.333 11.2476 599.167 54.2919 719 75.8141C838.833 97.3362 958.667 97.3362 1078.5 94.2616C1198.33 91.1871 1318.17 85.0379 1378.08 81.9633L1438 78.8887V134.231H1378.08C1318.17 134.231 1198.33 134.231 1078.5 134.231C958.667 134.231 838.833 134.231 719 134.231C599.167 134.231 479.333 134.231 359.5 134.231C239.667 134.231 119.833 134.231 59.9167 134.231H0V41.9936Z"
        fill="#E6AF2E" fill-opacity="0.6" />
    <path fill-rule="evenodd" clip-rule="evenodd"
        d="M0 76.7675L59.9167 64.4691C119.833 52.1707 239.667 27.574 359.5 36.7978C479.333 46.0215 599.167 89.0659 719 110.588C838.833 132.11 958.667 132.11 1078.5 129.036C1198.33 125.961 1318.17 119.812 1378.08 116.737L1438 113.663V169.005H1378.08C1318.17 169.005 1198.33 169.005 1078.5 169.005C958.667 169.005 838.833 169.005 719 169.005C599.167 169.005 479.333 169.005 359.5 169.005C239.667 169.005 119.833 169.005 59.9167 169.005H0V76.7675Z"
        fill="#E6AF2E" />
</svg>