<svg width="1440" height="800" viewBox="0 0 1440 800" fill="none" xmlns="http://www.w3.org/2000/svg">
    <g clip-path="url(#clip0_566_190)">
        <path fill-rule="evenodd" clip-rule="evenodd"
            d="M0.296875 645.128L48.2969 639.965C96.2969 634.803 192.297 624.478 288.297 624.478C384.297 624.478 480.297 634.803 576.297 634.803C672.297 634.803 768.297 624.478 864.297 603.828C960.297 583.179 1056.3 552.204 1152.3 531.554C1248.3 510.905 1344.3 500.58 1392.3 495.418L1440.3 490.255V800H1392.3C1344.3 800 1248.3 800 1152.3 800C1056.3 800 960.297 800 864.297 800C768.297 800 672.297 800 576.297 800C480.297 800 384.297 800 288.297 800C192.297 800 96.2969 800 48.2969 800H0.296875V645.128Z"
            fill="#E6AF2E" fill-opacity="0.9" />
        <path fill-rule="evenodd" clip-rule="evenodd"
            d="M0.296875 588.217L48.2969 581.157C96.2969 574.098 192.297 559.979 288.297 559.979C384.297 559.979 480.297 574.098 576.297 574.098C672.297 574.098 768.297 559.979 864.297 531.741C960.297 503.503 1056.3 461.147 1152.3 432.909C1248.3 404.671 1344.3 390.552 1392.3 383.493L1440.3 376.433V800H1392.3C1344.3 800 1248.3 800 1152.3 800C1056.3 800 960.297 800 864.297 800C768.297 800 672.297 800 576.297 800C480.297 800 384.297 800 288.297 800C192.297 800 96.2969 800 48.2969 800H0.296875V588.217Z"
            fill="#E6AF2E" fill-opacity="0.6" />
        <path fill-rule="evenodd" clip-rule="evenodd"
            d="M0.296875 553.725L48.2969 545.516C96.2969 537.307 192.297 520.888 288.297 520.888C384.297 520.888 480.297 537.307 576.297 537.307C672.297 537.307 768.297 520.888 864.297 488.052C960.297 455.215 1056.3 405.96 1152.3 373.124C1248.3 340.287 1344.3 323.869 1392.3 315.659L1440.3 307.45V800H1392.3C1344.3 800 1248.3 800 1152.3 800C1056.3 800 960.297 800 864.297 800C768.297 800 672.297 800 576.297 800C480.297 800 384.297 800 288.297 800C192.297 800 96.2969 800 48.2969 800H0.296875V553.725Z"
            fill="#E6AF2E" fill-opacity="0.3" />
        <g filter="url(#filter0_f_566_190)">
            <path fill-rule="evenodd" clip-rule="evenodd"
                d="M0 404.714L48 391.538C96 378.362 192 352.009 288 352.009C384 352.009 480 378.362 576 378.362C672 378.362 768 352.009 864 299.305C960 246.6 1056 167.543 1152 114.838C1248 62.1332 1344 35.7809 1392 22.6047L1440 9.42847V800H1392C1344 800 1248 800 1152 800C1056 800 960 800 864 800C768 800 672 800 576 800C480 800 384 800 288 800C192 800 96 800 48 800H0V404.714Z"
                fill="#E6AF2E" fill-opacity="0.3" />
        </g>
        <path fill-rule="evenodd" clip-rule="evenodd"
            d="M1440.59 672.733L1389.29 668.49C1337.99 664.248 1235.39 655.764 1132.79 655.764C1030.19 655.764 927.594 664.248 824.994 664.248C722.394 664.248 619.794 655.764 517.194 638.795C414.594 621.826 311.994 596.372 209.394 579.403C106.794 562.434 51.5969 559.987 0.296875 555.745V627.631V758.284V800C51.5969 800 106.794 800 209.394 800C311.994 800 414.594 800 517.194 800C619.794 800 722.394 800 824.994 800C927.594 800 1030.19 800 1132.79 800C1235.39 800 1337.99 800 1389.29 800H1440.59V672.733Z"
            fill="#F4F4FF" />
    </g>
    <defs>
        <filter id="filter0_f_566_190" x="-300" y="-290.572" width="2040" height="1390.57" filterUnits="userSpaceOnUse"
            color-interpolation-filters="sRGB">
            <feFlood flood-opacity="0" result="BackgroundImageFix" />
            <feBlend mode="normal" in="SourceGraphic" in2="BackgroundImageFix" result="shape" />
            <feGaussianBlur stdDeviation="150" result="effect1_foregroundBlur_566_190" />
        </filter>
        <clipPath id="clip0_566_190">
            <rect width="1440" height="800" fill="white" />
        </clipPath>
    </defs>
</svg>