<svg overflow="visible" width="1440" height="245" viewBox="0 0 1440 245" fill="none" xmlns="http://www.w3.org/2000/svg">
    <style type="text/css">
        @media (prefers-color-scheme: dark) {
            .btm {
                fill: #060b0f;
            }
        }
    </style>
    <path overflow="visible" class=" btm" fill-rule="evenodd" clip-rule="evenodd"
        d="M1440 117.733L1388.71 113.49C1337.42 109.248 1234.84 100.764 1132.26 100.764C1029.68 100.764 927.106 109.248 824.527 109.248C721.948 109.248 619.369 100.764 516.79 83.7945C414.211 66.8256 311.633 41.3721 209.054 24.4031C106.475 7.4341 51.2894 4.98736 -1.12895e-05 0.745117V72.6307V203.284V245C51.2894 245 106.475 245 209.054 245C311.633 245 414.211 245 516.79 245C619.369 245 721.948 245 824.527 245C927.106 245 1029.68 245 1132.26 245C1234.84 245 1337.42 245 1388.71 245H1440V117.733Z"
        fill="#F4F4FF" />
</svg>