<svg overflow="visible" width="1440" height="310" viewBox="0 0 1440 310" fill="none" xmlns="http://www.w3.org/2000/svg">
    <path overflow="visible" fill-rule=" evenodd" clip-rule="evenodd"
        d="M0 155.128L48 149.965C96 144.803 192 134.478 288 134.478C384 134.478 480 144.803 576 144.803C672 144.803 768 134.478 864 113.828C960 93.1786 1056 62.2041 1152 41.5544C1248 20.9048 1344 10.58 1392 5.41754L1440 0.255127V310H1392C1344 310 1248 310 1152 310C1056 310 960 310 864 310C768 310 672 310 576 310C480 310 384 310 288 310C192 310 96 310 48 310H0V155.128Z"
        fill="#E6AF2E" fill-opacity="0.9" />
</svg>