<svg overflow="visible" width="1440" height="424" viewBox="0 0 1440 424" fill="none" xmlns="http://www.w3.org/2000/svg">
    <path overflow="visible" fill-rule=" evenodd" clip-rule="evenodd"
        d="M0 212.217L48 205.157C96 198.098 192 183.979 288 183.979C384 183.979 480 198.098 576 198.098C672 198.098 768 183.979 864 155.741C960 127.503 1056 85.1467 1152 56.9089C1248 28.6711 1344 14.5522 1392 7.49279L1440 0.43335V424H1392C1344 424 1248 424 1152 424C1056 424 960 424 864 424C768 424 672 424 576 424C480 424 384 424 288 424C192 424 96 424 48 424H0V212.217Z"
        fill="#E6AF2E" fill-opacity="0.6" />
</svg>