<svg preserveAspectRatio="none" width="1440" height="170" viewBox="0 0 1440 170" fill="none"
    xmlns="http://www.w3.org/2000/svg">
    <style type="text/css">
       @media (prefers-color-scheme: dark) {
            .inner {
                fill: #12273b

            }
            .outer {
                fill: #0c1c29
            }
        }

        @media (prefers-color-scheme: light) {
            .inner {
                fill: #7180ac
            }
            .outer {
                fill: #a6afc
            }
        }


    </style>
    <path class="outer" fill-rule="evenodd" clip-rule="evenodd"
        d="M1440 127.091L1380 139.389C1320 151.688 1200 176.284 1080 167.061C960 157.837 840 114.793 720 93.2704C600 71.7482 480 71.7482 360 74.8228C240 77.8974 120 84.0466 59.9999 87.1212L-5.72205e-05 90.1958V34.8531H59.9999C120 34.8531 240 34.8531 360 34.8531C480 34.8531 600 34.8531 720 34.8531C840 34.8531 960 34.8531 1080 34.8531C1200 34.8531 1320 34.8531 1380 34.8531H1440V127.091Z"
        /> 
    <path class="inner" fill-rule="evenodd" clip-rule="evenodd"
        d="M1440 92.317L1380 104.615C1320 116.914 1200 141.51 1080 132.287C960 123.063 840 80.0186 720 58.4965C600 36.9743 480 36.9743 360 40.0489C240 43.1235 120 49.2727 59.9999 52.3473L-5.72205e-05 55.4219V0.0791871H59.9999C120 0.0791871 240 0.0791871 360 0.0791871C480 0.0791871 600 0.0791871 720 0.0791871C840 0.0791871 960 0.0791871 1080 0.0791871C1200 0.0791871 1320 0.0791871 1380 0.0791871H1440V92.317Z"
         />
</svg>