<svg overflow="visible" width="1440" height="493" viewBox="0 0 1440 493" fill="none" xmlns="http://www.w3.org/2000/svg">
    <path overflow="visible" fill-rule=" evenodd" clip-rule="evenodd"
        d="M0.296875 246.725L48.2969 238.516C96.2969 230.307 192.297 213.888 288.297 213.888C384.297 213.888 480.297 230.307 576.297 230.307C672.297 230.307 768.297 213.888 864.297 181.052C960.297 148.215 1056.3 98.9602 1152.3 66.1235C1248.3 33.2868 1344.3 16.8685 1392.3 8.65936L1440.3 0.450195V493H1392.3C1344.3 493 1248.3 493 1152.3 493C1056.3 493 960.297 493 864.297 493C768.297 493 672.297 493 576.297 493C480.297 493 384.297 493 288.297 493C192.297 493 96.2969 493 48.2969 493H0.296875V246.725Z"
        fill="#E6AF2E" fill-opacity="0.3" />
</svg>