<svg width="430" height="273" viewBox="0 0 430 273" fill="none" xmlns="http://www.w3.org/2000/svg">
<path fill-rule="evenodd" clip-rule="evenodd" d="M-96.5547 195.164L-78.2362 192.569C-59.9178 189.975 -23.2809 184.785 13.356 184.785C49.9929 184.785 86.6298 189.975 123.267 189.975C159.904 189.975 196.541 184.785 233.177 174.407C269.814 164.029 306.451 148.462 343.088 138.084C379.725 127.705 416.362 122.516 434.68 119.922L452.999 117.327V273H434.68C416.362 273 379.725 273 343.088 273C306.451 273 269.814 273 233.177 273C196.541 273 159.904 273 123.267 273C86.6298 273 49.9929 273 13.356 273C-23.2809 273 -59.9178 273 -78.2362 273H-96.5547V195.164Z" fill="#E6AF2E" fill-opacity="0.9"/>
<path fill-rule="evenodd" clip-rule="evenodd" d="M-226.945 164.798L-203.371 161.191C-179.798 157.584 -132.651 156.984 -85.5045 156.984C-38.3578 156.984 8.78883 161.191 55.9355 161.191C103.082 161.191 150.229 150.371 197.376 135.944C244.522 121.517 291.669 99.8764 338.816 85.4494C385.962 71.0224 433.109 63.809 456.682 60.2022L480.256 56.5955V273H456.682C433.109 273 385.962 273 338.816 273C291.669 273 244.522 273 197.376 273C150.229 273 103.082 273 55.9355 273C8.78883 273 -38.3578 273 -85.5045 273C-132.651 273 -179.798 273 -203.371 273H-226.945V164.798Z" fill="#E6AF2E" fill-opacity="0.6"/>
<path fill-rule="evenodd" clip-rule="evenodd" d="M-745.558 143.769L-702.758 139.462C-659.957 135.154 -362.086 212.845 -276.485 212.845C-190.885 212.845 -317.555 135.154 -231.954 135.154C-146.353 135.154 11.183 136.218 105.476 118.835C201.243 108.861 190.672 93.9009 281.65 65.9746C362.131 32.349 441.139 5.16828 483.939 0.860596L538.452 14.5388V273H495.652C452.852 273 367.251 273 281.65 273C196.05 273 110.449 273 24.8483 273C-60.7524 273 -146.353 273 -231.954 273C-317.555 273 -403.155 273 -488.756 273C-574.357 273 -659.957 273 -702.758 273H-745.558V143.769Z" fill="#E6AF2E" fill-opacity="0.3"/>
</svg>
