<svg preserveAspectRatio="none" width="1440" height="283" viewBox="0 0 1440 283" fill="none"
    xmlns="http://www.w3.org/2000/svg">
    <path fill-rule="evenodd" clip-rule="evenodd"
        d="M1440.79 66.7452L1380.55 78.7594C1320.31 90.7735 1199.83 114.802 1079.35 120.809C958.863 126.816 838.38 114.802 717.897 84.7664C597.414 54.731 476.931 6.67444 356.448 0.667358C235.966 -5.33972 115.483 30.7028 55.2415 48.724L-5 66.7452V283H55.2415C115.483 283 235.966 283 356.448 283C476.931 283 597.414 283 717.897 283C838.38 283 958.863 283 1079.35 283C1199.83 283 1320.31 283 1380.55 283H1440.79V66.7452Z"
        fill="#313131" />
</svg>