<svg width="1440" height="800" viewBox="0 0 1440 800" fill="none" xmlns="http://www.w3.org/2000/svg">
    <g filter="url(#filter0_f_566_189)">
        <path fill-rule="evenodd" clip-rule="evenodd"
            d="M0 404.714L48 391.538C96 378.362 192 352.009 288 352.009C384 352.009 480 378.362 576 378.362C672 378.362 768 352.009 864 299.305C960 246.6 1056 167.543 1152 114.838C1248 62.1332 1344 35.7809 1392 22.6047L1440 9.42847V800H1392C1344 800 1248 800 1152 800C1056 800 960 800 864 800C768 800 672 800 576 800C480 800 384 800 288 800C192 800 96 800 48 800H0V404.714Z"
            fill="#E6AF2E" fill-opacity="0.3" />
    </g>
    <defs>
        <filter id="filter0_f_566_189" x="-300" y="-290.572" width="2040" height="1390.57" filterUnits="userSpaceOnUse"
            color-interpolation-filters="sRGB">
            <feFlood flood-opacity="0" result="BackgroundImageFix" />
            <feBlend mode="normal" in="SourceGraphic" in2="BackgroundImageFix" result="shape" />
            <feGaussianBlur stdDeviation="150" result="effect1_foregroundBlur_566_189" />
        </filter>
    </defs>
</svg>