<svg width="433" height="812" viewBox="0 0 433 812" fill="none" xmlns="http://www.w3.org/2000/svg">
    <path fill-rule="evenodd" clip-rule="evenodd"
        d="M43.8164 3.40941C105.742 13.3942 145.725 68.5472 200.614 98.9213C266.954 135.632 357.833 135.487 398.351 199.597C441.372 267.669 442.058 359.775 412.924 434.855C384.476 508.166 300.741 536.753 245.725 592.918C174.547 665.585 145.166 819.997 43.8164 811.677C-60.9056 803.08 -55.0486 629.407 -135.375 561.632C-205.576 502.4 -340.49 535.385 -381.233 453.042C-421.133 372.406 -358.655 276.924 -315.239 198.127C-278.251 130.996 -221.922 78.1804 -154.566 41.6529C-93.8741 8.73949 -24.3373 -7.57953 43.8164 3.40941Z"
        fill="#E6AF2E" />
</svg>