<svg width="433" height="812" viewBox="0 0 433 812" fill="none" xmlns="http://www.w3.org/2000/svg">
<path fill-rule="evenodd" clip-rule="evenodd" d="M43.8169 3.40941C105.743 13.3942 145.725 68.5472 200.615 98.9213C266.955 135.632 357.833 135.487 398.351 199.597C441.373 267.669 442.059 359.775 412.924 434.855C384.477 508.166 300.741 536.753 245.726 592.918C174.547 665.585 145.166 819.997 43.8169 811.677C-60.9051 803.08 -55.0481 629.407 -135.374 561.632C-205.575 502.4 -340.489 535.385 -381.233 453.042C-421.132 372.406 -358.654 276.924 -315.238 198.127C-278.251 130.996 -221.921 78.1804 -154.565 41.6529C-93.8737 8.73949 -24.3368 -7.57953 43.8169 3.40941Z" fill="#E6AF2E"/>
</svg>
