<svg width="794" height="642" viewBox="0 0 794 642" fill="none" xmlns="http://www.w3.org/2000/svg">
<path d="M388.462 144.248L397 150.159L405.538 144.248C454.101 110.628 526.13 97.5869 595.198 97.5869C636.239 97.5869 678.721 102.393 717.067 113.413C740.332 120.497 760.229 128.662 778.396 140.022V611.413C778.264 611.618 778.028 611.924 777.654 612.265C777.165 612.711 776.615 613.057 776.117 613.269C775.654 613.466 775.398 613.482 775.378 613.483C775.377 613.483 775.377 613.483 775.378 613.483C774.41 613.483 773.901 613.481 773.483 613.467C773.363 613.462 773.276 613.458 773.216 613.454C773.128 613.421 772.975 613.361 772.744 613.259C724.074 589.547 667.407 589.899 614.639 590.227C608.534 590.265 602.481 590.303 596.498 590.303C565.27 590.303 526.772 592.434 489.726 598.164C456.645 603.281 423.538 611.439 397.748 624.243C370.547 607.669 338.927 599.339 306.639 595.036C271.249 590.321 233.755 590.303 198.802 590.303C147.884 590.303 75.787 591.851 23.9295 613.746C21.6703 614.064 19.9345 614.595 18.9509 614.896L18.7611 614.954C18.5966 615.005 18.4607 615.045 18.3503 615.077C18.2316 615.046 18.0752 614.995 17.8833 614.914C17.3849 614.701 16.8349 614.355 16.3458 613.909C15.972 613.568 15.7357 613.262 15.604 613.058V139.981C63.9598 109.519 132.736 97.5869 198.802 97.5869C267.87 97.5869 339.899 110.628 388.462 144.248Z" fill="#FFBF00" stroke="black" stroke-width="30"/>
<path d="M388.387 73.2865L397 79.8201L405.612 73.2865C446.928 41.9436 508.286 29.7229 567.356 29.7229C602.423 29.7229 638.679 34.2235 671.369 44.5156C691.155 51.1184 708.042 58.7095 723.462 69.2508V513.824C723.361 514.035 723.147 514.371 722.796 514.722C722.445 515.073 722.109 515.287 721.898 515.388C721.652 515.388 721.447 515.387 721.255 515.386C721.13 515.384 721.025 515.383 720.936 515.381C674.929 490.814 619.87 481.317 567.356 481.317C539.445 481.317 506.023 486.614 474.392 495.168C446.558 502.696 419.249 512.978 397.736 525.028C349.841 492.58 285.102 481.317 226.644 481.317C180.341 481.317 119.165 495.272 75.599 515.723C73.9116 516.01 72.5716 516.42 71.7123 516.703C71.5563 516.592 71.382 516.449 71.204 516.271C70.8534 515.92 70.6389 515.584 70.5381 515.373V69.2119C111.677 40.8793 170.205 29.7229 226.644 29.7229C285.714 29.7229 347.072 41.9436 388.387 73.2865Z" fill="#DADEFE" stroke="black" stroke-width="28.5"/>
<line x1="396.815" y1="82.5869" x2="396.815" y2="521.564" stroke="black" stroke-width="35"/>
<mask id="path-4-inside-1_206_10210" fill="white">
<path fill-rule="evenodd" clip-rule="evenodd" d="M438.056 381.618C380.516 362.63 334.4 318.519 312.696 262.272L93.365 481.602C59.5782 515.389 59.5782 570.168 93.365 603.955C127.152 637.742 181.931 637.742 215.718 603.955L438.056 381.618Z"/>
</mask>
<path fill-rule="evenodd" clip-rule="evenodd" d="M438.056 381.618C380.516 362.63 334.4 318.519 312.696 262.272L93.365 481.602C59.5782 515.389 59.5782 570.168 93.365 603.955C127.152 637.742 181.931 637.742 215.718 603.955L438.056 381.618Z" fill="#4A4A4A"/>
<path d="M438.056 381.618L461.39 404.952L499.274 367.069L448.397 350.28L438.056 381.618ZM312.696 262.272L343.483 250.392L325.224 203.074L289.361 238.937L312.696 262.272ZM93.365 481.602L116.7 504.937L116.7 504.937L93.365 481.602ZM93.365 603.955L70.0305 627.29L70.0305 627.29L93.365 603.955ZM215.718 603.955L192.383 580.621L215.718 603.955ZM448.397 350.28C400.281 334.402 361.644 297.456 343.483 250.392L281.908 274.152C307.156 339.582 360.751 390.858 427.715 412.955L448.397 350.28ZM116.7 504.937L336.03 285.606L289.361 238.937L70.0305 458.268L116.7 504.937ZM116.7 580.621C95.8 559.721 95.8 525.836 116.7 504.937L70.0305 458.268C23.3563 504.942 23.3564 580.616 70.0305 627.29L116.7 580.621ZM192.383 580.621C171.484 601.52 137.599 601.52 116.7 580.621L70.0305 627.29C116.705 673.964 192.378 673.964 239.053 627.29L192.383 580.621ZM414.721 358.283L192.383 580.621L239.053 627.29L461.39 404.952L414.721 358.283Z" fill="black" mask="url(#path-4-inside-1_206_10210)"/>
<g filter="url(#filter0_b_206_10210)">
<ellipse cx="489.399" cy="202.664" rx="202.301" ry="202.301" fill="url(#paint0_linear_206_10210)"/>
<path d="M675.201 202.664C675.201 305.28 592.015 388.466 489.399 388.466C386.784 388.466 303.598 305.28 303.598 202.664C303.598 100.049 386.784 16.8629 489.399 16.8629C592.015 16.8629 675.201 100.049 675.201 202.664Z" stroke="black" stroke-width="33"/>
</g>
<defs>
<filter id="filter0_b_206_10210" x="177.098" y="-109.637" width="624.603" height="624.603" filterUnits="userSpaceOnUse" color-interpolation-filters="sRGB">
<feFlood flood-opacity="0" result="BackgroundImageFix"/>
<feGaussianBlur in="BackgroundImageFix" stdDeviation="55"/>
<feComposite in2="SourceAlpha" operator="in" result="effect1_backgroundBlur_206_10210"/>
<feBlend mode="normal" in="SourceGraphic" in2="effect1_backgroundBlur_206_10210" result="shape"/>
</filter>
<linearGradient id="paint0_linear_206_10210" x1="489.399" y1="0.362854" x2="489.399" y2="404.966" gradientUnits="userSpaceOnUse">
<stop stop-color="#3281F0"/>
<stop offset="0.945" stop-color="#041E42" stop-opacity="0.5"/>
</linearGradient>
</defs>
</svg>
