<svg width="133" height="126" viewBox="0 0 133 126" fill="none" xmlns="http://www.w3.org/2000/svg">
    <g id="star-g">
        <path id="star-path"
            d="M61.6959 3.60645C63.1926 -1.0001 69.7097 -1.00011 71.2065 3.60644L83.2962 40.8148C83.9656 42.8749 85.8853 44.2697 88.0515 44.2697H127.175C132.018 44.2697 134.032 50.4678 130.114 53.3148L98.4623 76.3109C96.7098 77.5841 95.9765 79.8409 96.6459 81.901L108.736 119.109C110.232 123.716 104.96 127.547 101.041 124.7L69.3901 101.704C67.6377 100.43 65.2647 100.43 63.5122 101.704L31.8609 124.7C27.9423 127.547 22.6699 123.716 24.1667 119.109L36.2564 81.901C36.9258 79.8409 36.1925 77.5841 34.4401 76.3109L2.78875 53.3148C-1.12982 50.4678 0.884047 44.2697 5.72766 44.2697H44.8509C47.017 44.2697 48.9368 42.8749 49.6062 40.8148L61.6959 3.60645Z"
            fill="#e6af2e" />
    </g>
</svg>